<?xml version="1.0" encoding="UTF-8"?>
<!DOCTYPE svg PUBLIC "-//W3C//DTD SVG 1.1//EN" "http://www.w3.org/Graphics/SVG/1.1/DTD/svg11.dtd">
<svg version="1.2" width="177.8mm" height="177.8mm" viewBox="0 0 17780 17780" preserveAspectRatio="xMidYMid" fill-rule="evenodd" stroke-width="28.222" stroke-linejoin="round" xmlns="http://www.w3.org/2000/svg" xmlns:ooo="http://xml.openoffice.org/svg/export" xmlns:xlink="http://www.w3.org/1999/xlink" xmlns:presentation="http://sun.com/xmlns/staroffice/presentation" xmlns:smil="http://www.w3.org/2001/SMIL20/" xmlns:anim="urn:oasis:names:tc:opendocument:xmlns:animation:1.0" xmlns:svg="urn:oasis:names:tc:opendocument:xmlns:svg-compatible:1.0" xml:space="preserve">
 <defs class="ClipPathGroup">
  <clipPath id="presentation_clip_path" clipPathUnits="userSpaceOnUse">
   <rect x="0" y="0" width="17780" height="17780"/>
  </clipPath>
  <clipPath id="presentation_clip_path_shrink" clipPathUnits="userSpaceOnUse">
   <rect x="17" y="17" width="17745" height="17745"/>
  </clipPath>
 </defs>
 <defs class="TextShapeIndex">
  <g ooo:slide="id1" ooo:id-list="id3 id4 id5 id6 id7 id8 id9 id10 id11 id12 id13 id14 id15"/>
 </defs>
 <defs class="EmbeddedBulletChars">
  <g id="bullet-char-template-57356" transform="scale(0.00048828125,-0.00048828125)">
   <path d="M 580,1141 L 1163,571 580,0 -4,571 580,1141 Z"/>
  </g>
  <g id="bullet-char-template-57354" transform="scale(0.00048828125,-0.00048828125)">
   <path d="M 8,1128 L 1137,1128 1137,0 8,0 8,1128 Z"/>
  </g>
  <g id="bullet-char-template-10146" transform="scale(0.00048828125,-0.00048828125)">
   <path d="M 174,0 L 602,739 174,1481 1456,739 174,0 Z M 1358,739 L 309,1346 659,739 1358,739 Z"/>
  </g>
  <g id="bullet-char-template-10132" transform="scale(0.00048828125,-0.00048828125)">
   <path d="M 2015,739 L 1276,0 717,0 1260,543 174,543 174,936 1260,936 717,1481 1274,1481 2015,739 Z"/>
  </g>
  <g id="bullet-char-template-10007" transform="scale(0.00048828125,-0.00048828125)">
   <path d="M 0,-2 C -7,14 -16,27 -25,37 L 356,567 C 262,823 215,952 215,954 215,979 228,992 255,992 264,992 276,990 289,987 310,991 331,999 354,1012 L 381,999 492,748 772,1049 836,1024 860,1049 C 881,1039 901,1025 922,1006 886,937 835,863 770,784 769,783 710,716 594,584 L 774,223 C 774,196 753,168 711,139 L 727,119 C 717,90 699,76 672,76 641,76 570,178 457,381 L 164,-76 C 142,-110 111,-127 72,-127 30,-127 9,-110 8,-76 1,-67 -2,-52 -2,-32 -2,-23 -1,-13 0,-2 Z"/>
  </g>
  <g id="bullet-char-template-10004" transform="scale(0.00048828125,-0.00048828125)">
   <path d="M 285,-33 C 182,-33 111,30 74,156 52,228 41,333 41,471 41,549 55,616 82,672 116,743 169,778 240,778 293,778 328,747 346,684 L 369,508 C 377,444 397,411 428,410 L 1163,1116 C 1174,1127 1196,1133 1229,1133 1271,1133 1292,1118 1292,1087 L 1292,965 C 1292,929 1282,901 1262,881 L 442,47 C 390,-6 338,-33 285,-33 Z"/>
  </g>
  <g id="bullet-char-template-9679" transform="scale(0.00048828125,-0.00048828125)">
   <path d="M 813,0 C 632,0 489,54 383,161 276,268 223,411 223,592 223,773 276,916 383,1023 489,1130 632,1184 813,1184 992,1184 1136,1130 1245,1023 1353,916 1407,772 1407,592 1407,412 1353,268 1245,161 1136,54 992,0 813,0 Z"/>
  </g>
  <g id="bullet-char-template-8226" transform="scale(0.00048828125,-0.00048828125)">
   <path d="M 346,457 C 273,457 209,483 155,535 101,586 74,649 74,723 74,796 101,859 155,911 209,963 273,989 346,989 419,989 480,963 531,910 582,859 608,796 608,723 608,648 583,586 532,535 482,483 420,457 346,457 Z"/>
  </g>
  <g id="bullet-char-template-8211" transform="scale(0.00048828125,-0.00048828125)">
   <path d="M -4,459 L 1135,459 1135,606 -4,606 -4,459 Z"/>
  </g>
  <g id="bullet-char-template-61548" transform="scale(0.00048828125,-0.00048828125)">
   <path d="M 173,740 C 173,903 231,1043 346,1159 462,1274 601,1332 765,1332 928,1332 1067,1274 1183,1159 1299,1043 1357,903 1357,740 1357,577 1299,437 1183,322 1067,206 928,148 765,148 601,148 462,206 346,322 231,437 173,577 173,740 Z"/>
  </g>
 </defs>
 <g>
  <g id="id2" class="Master_Slide">
   <g id="bg-id2" class="Background"/>
   <g id="bo-id2" class="BackgroundObjects"/>
  </g>
 </g>
 <g class="SlideGroup">
  <g>
   <g id="container-id1">
    <g id="id1" class="Slide" clip-path="url(#presentation_clip_path)">
     <g class="Page">
      <g class="Group">
       <g class="com.sun.star.drawing.ClosedBezierShape center-black">
        <g id="id3">
         <rect class="BoundingBox" stroke="none" fill="none" x="7891" y="8017" width="1999" height="1955"/>
         <path fill="rgb(0,0,0)" stroke="none" d="M 8819,8615 C 8748,8627 8683,8656 8628,8700 8573,8743 8531,8800 8507,8863 8483,8927 8477,8995 8489,9062 8502,9129 8532,9191 8578,9242 8624,9295 8684,9334 8751,9357 8818,9380 8891,9386 8961,9374 9032,9362 9098,9332 9152,9289 9207,9245 9249,9189 9273,9125 9298,9061 9304,8993 9291,8926 9279,8860 9248,8798 9202,8746 9156,8694 9097,8655 9029,8632 8962,8609 8889,8603 8819,8615 Z"/>
         <path fill="none" stroke="rgb(0,0,0)" stroke-width="1182" stroke-linejoin="round" d="M 8819,8615 C 8748,8627 8683,8656 8628,8700 8573,8743 8531,8800 8507,8863 8483,8927 8477,8995 8489,9062 8502,9129 8532,9191 8578,9242 8624,9295 8684,9334 8751,9357 8818,9380 8891,9386 8961,9374 9032,9362 9098,9332 9152,9289 9207,9245 9249,9189 9273,9125 9298,9061 9304,8993 9291,8926 9279,8860 9248,8798 9202,8746 9156,8694 9097,8655 9029,8632 8962,8609 8889,8603 8819,8615 Z"/>
        </g>
       </g>
       <g class="com.sun.star.drawing.ClosedBezierShape top-black">
        <g id="id4">
         <rect class="BoundingBox" stroke="none" fill="none" x="7427" y="297" width="2927" height="8078"/>
         <path fill="rgb(0,0,0)" stroke="none" d="M 8891,889 L 8890,889 C 9043,889 9194,929 9326,1004 9459,1080 9569,1188 9646,1319 9721,1451 9762,1599 9762,1751 9762,3474 9762,5197 9762,6919 L 9762,6920 C 9762,7071 9721,7220 9646,7351 9569,7483 9459,7591 9326,7667 9194,7742 9043,7782 8890,7782 8891,7782 8891,7782 8891,7782 L 8890,7782 C 8737,7782 8587,7742 8454,7667 8321,7591 8211,7483 8135,7351 8059,7220 8018,7071 8018,6920 8018,5197 8018,3474 8018,1750 L 8018,1751 C 8018,1599 8059,1451 8135,1319 8211,1188 8321,1080 8454,1004 8587,929 8737,889 8890,889 8891,889 8891,889 8891,889 Z"/>
         <path fill="none" stroke="rgb(0,0,0)" stroke-width="1182" stroke-linejoin="round" d="M 8891,889 L 8890,889 C 9043,889 9194,929 9326,1004 9459,1080 9569,1188 9646,1319 9721,1451 9762,1599 9762,1751 L 9762,6919 9762,6920 C 9762,7071 9721,7220 9646,7351 9569,7483 9459,7591 9326,7667 9194,7742 9043,7782 8890,7782 L 8891,7782 8890,7782 C 8737,7782 8587,7742 8454,7667 8321,7591 8211,7483 8135,7351 8059,7220 8018,7071 8018,6920 L 8018,1750 8018,1751 C 8018,1599 8059,1451 8135,1319 8211,1188 8321,1080 8454,1004 8587,929 8737,889 8890,889 L 8891,889 Z"/>
        </g>
       </g>
       <g class="com.sun.star.drawing.ClosedBezierShape bottom-black">
        <g id="id5">
         <rect class="BoundingBox" stroke="none" fill="none" x="7427" y="9394" width="2927" height="8078"/>
         <path fill="rgb(0,0,0)" stroke="none" d="M 8891,16880 L 8890,16880 C 9043,16880 9194,16839 9326,16765 9459,16689 9569,16580 9646,16449 9721,16317 9762,16169 9762,16017 9762,14294 9762,12571 9762,10849 L 9762,10848 C 9762,10697 9721,10548 9646,10417 9569,10285 9459,10177 9326,10101 9194,10026 9043,9986 8890,9986 8891,9986 8891,9986 8891,9986 L 8890,9986 C 8737,9986 8587,10026 8454,10101 8321,10177 8211,10285 8135,10417 8059,10548 8018,10697 8018,10848 8018,12571 8018,14294 8018,16018 L 8018,16017 C 8018,16169 8059,16317 8135,16449 8211,16580 8321,16689 8454,16765 8587,16839 8737,16880 8890,16880 8891,16880 8891,16880 8891,16880 Z"/>
         <path fill="none" stroke="rgb(0,0,0)" stroke-width="1182" stroke-linejoin="round" d="M 8891,16880 L 8890,16880 C 9043,16880 9194,16839 9326,16765 9459,16689 9569,16580 9646,16449 9721,16317 9762,16169 9762,16017 L 9762,10849 9762,10848 C 9762,10697 9721,10548 9646,10417 9569,10285 9459,10177 9326,10101 9194,10026 9043,9986 8890,9986 L 8891,9986 8890,9986 C 8737,9986 8587,10026 8454,10101 8321,10177 8211,10285 8135,10417 8059,10548 8018,10697 8018,10848 L 8018,16018 8018,16017 C 8018,16169 8059,16317 8135,16449 8211,16580 8321,16689 8454,16765 8587,16839 8737,16880 8890,16880 L 8891,16880 Z"/>
        </g>
       </g>
       <g class="com.sun.star.drawing.ClosedBezierShape top-right-black">
        <g id="id6">
         <rect class="BoundingBox" stroke="none" fill="none" x="9191" y="3889" width="7703" height="5442"/>
         <path fill="rgb(0,0,0)" stroke="none" d="M 16189,4887 L 16188,4886 C 16265,5012 16304,5156 16302,5302 16299,5449 16255,5594 16173,5723 16091,5850 15976,5958 15837,6034 14264,6895 12692,7757 11119,8618 L 11118,8619 C 10981,8694 10825,8735 10667,8738 10509,8741 10355,8705 10219,8634 10084,8562 9972,8459 9896,8333 9896,8334 9896,8334 9896,8334 L 9896,8333 C 9819,8207 9781,8064 9783,7917 9786,7770 9830,7626 9911,7497 9993,7369 10109,7261 10247,7186 11820,6324 13393,5463 14966,4601 L 14965,4601 C 15104,4525 15260,4484 15418,4481 15576,4478 15730,4514 15866,4585 16000,4657 16112,4761 16188,4886 16189,4887 16189,4887 16189,4887 Z"/>
         <path fill="none" stroke="rgb(0,0,0)" stroke-width="1182" stroke-linejoin="round" d="M 16189,4887 L 16188,4886 C 16265,5012 16304,5156 16302,5302 16299,5449 16255,5594 16173,5723 16091,5850 15976,5958 15837,6034 L 11119,8618 11118,8619 C 10981,8694 10825,8735 10667,8738 10509,8741 10355,8705 10219,8634 10084,8562 9972,8459 9896,8333 L 9896,8334 9896,8333 C 9819,8207 9781,8064 9783,7917 9786,7770 9830,7626 9911,7497 9993,7369 10109,7261 10247,7186 L 14966,4601 14965,4601 C 15104,4525 15260,4484 15418,4481 15576,4478 15730,4514 15866,4585 16000,4657 16112,4761 16188,4886 16189,4887 16189,4887 16189,4887 Z"/>
        </g>
       </g>
       <g class="com.sun.star.drawing.ClosedBezierShape bottom-left-black">
        <g id="id7">
         <rect class="BoundingBox" stroke="none" fill="none" x="887" y="8438" width="7703" height="5442"/>
         <path fill="rgb(0,0,0)" stroke="none" d="M 1592,12882 L 1591,12881 C 1668,13008 1780,13111 1915,13183 2050,13254 2204,13290 2363,13287 2520,13284 2676,13243 2815,13167 4388,12305 5960,11444 7533,10583 L 7534,10582 C 7671,10507 7787,10399 7869,10271 7950,10142 7994,9998 7997,9851 7999,9704 7961,9561 7884,9435 7885,9435 7885,9435 7885,9435 L 7884,9435 C 7808,9309 7696,9206 7561,9134 7426,9063 7272,9027 7113,9030 6955,9033 6799,9074 6662,9150 5088,10011 3516,10873 1942,11735 L 1943,11734 C 1805,11810 1689,11918 1607,12046 1526,12174 1481,12319 1478,12466 1476,12613 1515,12756 1591,12881 1592,12882 1592,12882 1592,12882 Z"/>
         <path fill="none" stroke="rgb(0,0,0)" stroke-width="1182" stroke-linejoin="round" d="M 1592,12882 L 1591,12881 C 1668,13008 1780,13111 1915,13183 2050,13254 2204,13290 2363,13287 2520,13284 2676,13243 2815,13167 L 7533,10583 7534,10582 C 7671,10507 7787,10399 7869,10271 7950,10142 7994,9998 7997,9851 7999,9704 7961,9561 7884,9435 L 7885,9435 7884,9435 C 7808,9309 7696,9206 7561,9134 7426,9063 7272,9027 7113,9030 6955,9033 6799,9074 6662,9150 L 1942,11735 1943,11734 C 1805,11810 1689,11918 1607,12046 1526,12174 1481,12319 1478,12466 1476,12613 1515,12756 1591,12881 L 1592,12882 Z"/>
        </g>
       </g>
       <g class="com.sun.star.drawing.ClosedBezierShape bottom-right-black">
        <g id="id8">
         <rect class="BoundingBox" stroke="none" fill="none" x="9191" y="8438" width="7703" height="5442"/>
         <path fill="rgb(0,0,0)" stroke="none" d="M 16188,12882 L 16189,12881 C 16112,13008 16000,13111 15866,13183 15730,13254 15576,13290 15418,13287 15260,13284 15104,13243 14965,13167 13393,12305 11820,11444 10248,10583 L 10247,10582 C 10109,10507 9993,10399 9911,10271 9830,10142 9786,9998 9783,9851 9781,9704 9819,9561 9896,9435 9896,9435 9896,9435 9896,9435 L 9896,9435 C 9972,9309 10084,9206 10219,9134 10355,9063 10509,9027 10667,9030 10825,9033 10981,9074 11118,9150 12692,10011 14264,10873 15838,11735 L 15837,11734 C 15976,11810 16091,11918 16173,12046 16255,12174 16299,12319 16302,12466 16304,12613 16265,12756 16189,12881 16188,12882 16188,12882 16188,12882 Z"/>
         <path fill="none" stroke="rgb(0,0,0)" stroke-width="1182" stroke-linejoin="round" d="M 16188,12882 L 16189,12881 C 16112,13008 16000,13111 15866,13183 15730,13254 15576,13290 15418,13287 15260,13284 15104,13243 14965,13167 L 10248,10583 10247,10582 C 10109,10507 9993,10399 9911,10271 9830,10142 9786,9998 9783,9851 9781,9704 9819,9561 9896,9435 L 9896,9435 9896,9435 C 9972,9309 10084,9206 10219,9134 10355,9063 10509,9027 10667,9030 10825,9033 10981,9074 11118,9150 L 15838,11735 15837,11734 C 15976,11810 16091,11918 16173,12046 16255,12174 16299,12319 16302,12466 16304,12613 16265,12756 16189,12881 L 16188,12882 Z"/>
        </g>
       </g>
       <g class="com.sun.star.drawing.ClosedBezierShape top-right-black">
        <g id="id9">
         <rect class="BoundingBox" stroke="none" fill="none" x="887" y="3889" width="7703" height="5442"/>
         <path fill="rgb(0,0,0)" stroke="none" d="M 1591,4887 L 1592,4886 C 1515,5012 1476,5156 1478,5302 1481,5449 1526,5594 1607,5723 1689,5850 1805,5958 1943,6034 3516,6895 5088,7757 6661,8618 L 6662,8619 C 6799,8694 6955,8735 7113,8738 7272,8741 7426,8705 7561,8634 7696,8562 7808,8459 7885,8333 7884,8334 7884,8334 7884,8334 L 7885,8333 C 7961,8207 7999,8064 7997,7917 7994,7770 7950,7626 7869,7497 7787,7369 7671,7261 7534,7186 5960,6324 4388,5463 2814,4601 L 2815,4601 C 2676,4525 2520,4484 2363,4481 2204,4478 2050,4514 1915,4585 1780,4657 1668,4761 1592,4886 1591,4887 1591,4887 1591,4887 Z"/>
         <path fill="none" stroke="rgb(0,0,0)" stroke-width="1182" stroke-linejoin="round" d="M 1591,4887 L 1592,4886 C 1515,5012 1476,5156 1478,5302 1481,5449 1526,5594 1607,5723 1689,5850 1805,5958 1943,6034 L 6661,8618 6662,8619 C 6799,8694 6955,8735 7113,8738 7272,8741 7426,8705 7561,8634 7696,8562 7808,8459 7885,8333 L 7884,8334 7885,8333 C 7961,8207 7999,8064 7997,7917 7994,7770 7950,7626 7869,7497 7787,7369 7671,7261 7534,7186 L 2814,4601 2815,4601 C 2676,4525 2520,4484 2363,4481 2204,4478 2050,4514 1915,4585 1780,4657 1668,4761 1592,4886 L 1591,4887 Z"/>
        </g>
       </g>
       <g class="com.sun.star.drawing.ClosedBezierShape top-left-white">
        <g id="id10">
         <rect class="BoundingBox" stroke="none" fill="none" x="1477" y="4480" width="6523" height="4261"/>
         <path fill="rgb(255,255,255)" stroke="none" d="M 1591,4887 L 1592,4886 C 1515,5012 1476,5156 1478,5302 1481,5449 1526,5594 1607,5723 1689,5850 1805,5958 1943,6034 3516,6895 5088,7757 6661,8618 L 6662,8619 C 6799,8694 6955,8735 7113,8738 7272,8741 7426,8705 7561,8634 7696,8562 7808,8459 7885,8333 7884,8334 7884,8334 7884,8334 L 7885,8333 C 7961,8207 7999,8064 7997,7917 7994,7770 7950,7626 7869,7497 7787,7369 7671,7261 7534,7186 5960,6324 4388,5463 2814,4601 L 2815,4601 C 2676,4525 2520,4484 2363,4481 2204,4478 2050,4514 1915,4585 1780,4657 1668,4761 1592,4886 1591,4887 1591,4887 1591,4887 Z"/>
         <path fill="none" stroke="rgb(0,0,0)" d="M 1591,4887 L 1592,4886 C 1515,5012 1476,5156 1478,5302 1481,5449 1526,5594 1607,5723 1689,5850 1805,5958 1943,6034 L 6661,8618 6662,8619 C 6799,8694 6955,8735 7113,8738 7272,8741 7426,8705 7561,8634 7696,8562 7808,8459 7885,8333 L 7884,8334 7885,8333 C 7961,8207 7999,8064 7997,7917 7994,7770 7950,7626 7869,7497 7787,7369 7671,7261 7534,7186 L 2814,4601 2815,4601 C 2676,4525 2520,4484 2363,4481 2204,4478 2050,4514 1915,4585 1780,4657 1668,4761 1592,4886 L 1591,4887 Z"/>
        </g>
       </g>
       <g class="com.sun.star.drawing.ClosedBezierShape top-white">
        <g id="id11">
         <rect class="BoundingBox" stroke="none" fill="none" x="8017" y="888" width="1747" height="6896"/>
         <path fill="rgb(255,255,255)" stroke="none" d="M 8891,889 L 8890,889 C 9043,889 9194,929 9326,1004 9459,1080 9569,1188 9646,1319 9721,1451 9762,1599 9762,1751 9762,3474 9762,5197 9762,6919 L 9762,6920 C 9762,7071 9721,7220 9646,7351 9569,7483 9459,7591 9326,7667 9194,7742 9043,7782 8890,7782 8891,7782 8891,7782 8891,7782 L 8890,7782 C 8737,7782 8587,7742 8454,7667 8321,7591 8211,7483 8135,7351 8059,7220 8018,7071 8018,6920 8018,5197 8018,3474 8018,1750 L 8018,1751 C 8018,1599 8059,1451 8135,1319 8211,1188 8321,1080 8454,1004 8587,929 8737,889 8890,889 8891,889 8891,889 8891,889 Z"/>
         <path fill="none" stroke="rgb(0,0,0)" d="M 8891,889 L 8890,889 C 9043,889 9194,929 9326,1004 9459,1080 9569,1188 9646,1319 9721,1451 9762,1599 9762,1751 L 9762,6919 9762,6920 C 9762,7071 9721,7220 9646,7351 9569,7483 9459,7591 9326,7667 9194,7742 9043,7782 8890,7782 L 8891,7782 8890,7782 C 8737,7782 8587,7742 8454,7667 8321,7591 8211,7483 8135,7351 8059,7220 8018,7071 8018,6920 L 8018,1750 8018,1751 C 8018,1599 8059,1451 8135,1319 8211,1188 8321,1080 8454,1004 8587,929 8737,889 8890,889 L 8891,889 Z"/>
        </g>
       </g>
       <g class="com.sun.star.drawing.ClosedBezierShape top-right-white">
        <g id="id12">
         <rect class="BoundingBox" stroke="none" fill="none" x="9782" y="4480" width="6522" height="4261"/>
         <path fill="rgb(255,255,255)" stroke="none" d="M 16189,4887 L 16188,4886 C 16265,5012 16304,5156 16302,5302 16299,5449 16255,5594 16173,5723 16091,5850 15976,5958 15837,6034 14264,6895 12692,7757 11119,8618 L 11118,8619 C 10981,8694 10825,8735 10667,8738 10509,8741 10355,8705 10219,8634 10084,8562 9972,8459 9896,8333 9896,8334 9896,8334 9896,8334 L 9896,8333 C 9819,8207 9781,8064 9783,7917 9786,7770 9830,7626 9911,7497 9993,7369 10109,7261 10247,7186 11820,6324 13393,5463 14966,4601 L 14965,4601 C 15104,4525 15260,4484 15418,4481 15576,4478 15730,4514 15866,4585 16000,4657 16112,4761 16188,4886 16189,4887 16189,4887 16189,4887 Z"/>
         <path fill="none" stroke="rgb(0,0,0)" d="M 16189,4887 L 16188,4886 C 16265,5012 16304,5156 16302,5302 16299,5449 16255,5594 16173,5723 16091,5850 15976,5958 15837,6034 L 11119,8618 11118,8619 C 10981,8694 10825,8735 10667,8738 10509,8741 10355,8705 10219,8634 10084,8562 9972,8459 9896,8333 L 9896,8334 9896,8333 C 9819,8207 9781,8064 9783,7917 9786,7770 9830,7626 9911,7497 9993,7369 10109,7261 10247,7186 L 14966,4601 14965,4601 C 15104,4525 15260,4484 15418,4481 15576,4478 15730,4514 15866,4585 16000,4657 16112,4761 16188,4886 16189,4887 16189,4887 16189,4887 Z"/>
        </g>
       </g>
       <g class="com.sun.star.drawing.ClosedBezierShape bottom-right-white">
        <g id="id13">
         <rect class="BoundingBox" stroke="none" fill="none" x="9782" y="9029" width="6522" height="4260"/>
         <path fill="rgb(255,255,255)" stroke="none" d="M 16188,12882 L 16189,12881 C 16112,13008 16000,13111 15866,13183 15730,13254 15576,13290 15418,13287 15260,13284 15104,13243 14965,13167 13393,12305 11820,11444 10248,10583 L 10247,10582 C 10109,10507 9993,10399 9911,10271 9830,10142 9786,9998 9783,9851 9781,9704 9819,9561 9896,9435 9896,9435 9896,9435 9896,9435 L 9896,9435 C 9972,9309 10084,9206 10219,9134 10355,9063 10509,9027 10667,9030 10825,9033 10981,9074 11118,9150 12692,10011 14264,10873 15838,11735 L 15837,11734 C 15976,11810 16091,11918 16173,12046 16255,12174 16299,12319 16302,12466 16304,12613 16265,12756 16189,12881 16188,12882 16188,12882 16188,12882 Z"/>
         <path fill="none" stroke="rgb(0,0,0)" d="M 16188,12882 L 16189,12881 C 16112,13008 16000,13111 15866,13183 15730,13254 15576,13290 15418,13287 15260,13284 15104,13243 14965,13167 L 10248,10583 10247,10582 C 10109,10507 9993,10399 9911,10271 9830,10142 9786,9998 9783,9851 9781,9704 9819,9561 9896,9435 L 9896,9435 9896,9435 C 9972,9309 10084,9206 10219,9134 10355,9063 10509,9027 10667,9030 10825,9033 10981,9074 11118,9150 L 15838,11735 15837,11734 C 15976,11810 16091,11918 16173,12046 16255,12174 16299,12319 16302,12466 16304,12613 16265,12756 16189,12881 L 16188,12882 Z"/>
        </g>
       </g>
       <g class="com.sun.star.drawing.ClosedBezierShape bottom-white">
        <g id="id14">
         <rect class="BoundingBox" stroke="none" fill="none" x="8017" y="9985" width="1747" height="6897"/>
         <path fill="rgb(255,255,255)" stroke="none" d="M 8891,16880 L 8890,16880 C 9043,16880 9194,16839 9326,16765 9459,16689 9569,16580 9646,16449 9721,16317 9762,16169 9762,16017 9762,14294 9762,12571 9762,10849 L 9762,10848 C 9762,10697 9721,10548 9646,10417 9569,10285 9459,10177 9326,10101 9194,10026 9043,9986 8890,9986 8891,9986 8891,9986 8891,9986 L 8890,9986 C 8737,9986 8587,10026 8454,10101 8321,10177 8211,10285 8135,10417 8059,10548 8018,10697 8018,10848 8018,12571 8018,14294 8018,16018 L 8018,16017 C 8018,16169 8059,16317 8135,16449 8211,16580 8321,16689 8454,16765 8587,16839 8737,16880 8890,16880 8891,16880 8891,16880 8891,16880 Z"/>
         <path fill="none" stroke="rgb(0,0,0)" d="M 8891,16880 L 8890,16880 C 9043,16880 9194,16839 9326,16765 9459,16689 9569,16580 9646,16449 9721,16317 9762,16169 9762,16017 L 9762,10849 9762,10848 C 9762,10697 9721,10548 9646,10417 9569,10285 9459,10177 9326,10101 9194,10026 9043,9986 8890,9986 L 8891,9986 8890,9986 C 8737,9986 8587,10026 8454,10101 8321,10177 8211,10285 8135,10417 8059,10548 8018,10697 8018,10848 L 8018,16018 8018,16017 C 8018,16169 8059,16317 8135,16449 8211,16580 8321,16689 8454,16765 8587,16839 8737,16880 8890,16880 L 8891,16880 Z"/>
        </g>
       </g>
       <g class="com.sun.star.drawing.ClosedBezierShape bottom-left-white">
        <g id="id15">
         <rect class="BoundingBox" stroke="none" fill="none" x="1477" y="9029" width="6523" height="4260"/>
         <path fill="rgb(255,255,255)" stroke="none" d="M 1592,12882 L 1591,12881 C 1668,13008 1780,13111 1915,13183 2050,13254 2204,13290 2363,13287 2520,13284 2676,13243 2815,13167 4388,12305 5960,11444 7533,10583 L 7534,10582 C 7671,10507 7787,10399 7869,10271 7950,10142 7994,9998 7997,9851 7999,9704 7961,9561 7884,9435 7885,9435 7885,9435 7885,9435 L 7884,9435 C 7808,9309 7696,9206 7561,9134 7426,9063 7272,9027 7113,9030 6955,9033 6799,9074 6662,9150 5088,10011 3516,10873 1942,11735 L 1943,11734 C 1805,11810 1689,11918 1607,12046 1526,12174 1481,12319 1478,12466 1476,12613 1515,12756 1591,12881 1592,12882 1592,12882 1592,12882 Z"/>
         <path fill="none" stroke="rgb(0,0,0)" d="M 1592,12882 L 1591,12881 C 1668,13008 1780,13111 1915,13183 2050,13254 2204,13290 2363,13287 2520,13284 2676,13243 2815,13167 L 7533,10583 7534,10582 C 7671,10507 7787,10399 7869,10271 7950,10142 7994,9998 7997,9851 7999,9704 7961,9561 7884,9435 L 7885,9435 7884,9435 C 7808,9309 7696,9206 7561,9134 7426,9063 7272,9027 7113,9030 6955,9033 6799,9074 6662,9150 L 1942,11735 1943,11734 C 1805,11810 1689,11918 1607,12046 1526,12174 1481,12319 1478,12466 1476,12613 1515,12756 1591,12881 L 1592,12882 Z"/>
        </g>
       </g>
      </g>
     </g>
    </g>
   </g>
  </g>
 </g>
</svg>
